<?xml version="1.0" encoding="UTF-8"?>
<svg xmlns="http://www.w3.org/2000/svg" xmlns:xlink="http://www.w3.org/1999/xlink" viewBox="0 0 73.93 73.92">
  <defs>
    <style>
      .cls-1 {
        fill: url(#_Áåçûìÿííûé_ãðàäèåíò_559);
      }

      .cls-1, .cls-2, .cls-3, .cls-4, .cls-5, .cls-6, .cls-7 {
        fill-rule: evenodd;
      }

      .cls-1, .cls-3, .cls-4, .cls-6, .cls-7 {
        mix-blend-mode: multiply;
        opacity: .3;
      }

      .cls-8 {
        isolation: isolate;
      }

      .cls-2 {
        fill: url(#_Áåçûìÿííûé_ãðàäèåíò_159);
      }

      .cls-3 {
        fill: url(#_Áåçûìÿííûé_ãðàäèåíò_559-2);
      }

      .cls-4 {
        fill: url(#_Áåçûìÿííûé_ãðàäèåíò_559-4);
      }

      .cls-5 {
        fill: url(#_Áåçûìÿííûé_ãðàäèåíò_142);
      }

      .cls-6 {
        fill: url(#_Áåçûìÿííûé_ãðàäèåíò_559-3);
      }

      .cls-7 {
        fill: url(#_Áåçûìÿííûé_ãðàäèåíò_559-5);
      }
    </style>
    <radialGradient id="_Áåçûìÿííûé_ãðàäèåíò_142" data-name="Áåçûìÿííûé ãðàäèåíò 142" cx="12.16" cy="35.24" fx="12.16" fy="35.24" r="59.37" gradientTransform="translate(-22.18 14.86) rotate(-35.79)" gradientUnits="userSpaceOnUse">
      <stop offset="0" stop-color="#4fb1ff"/>
      <stop offset=".21" stop-color="#4daefc"/>
      <stop offset=".37" stop-color="#49a5f2"/>
      <stop offset=".5" stop-color="#4297e2"/>
      <stop offset=".63" stop-color="#3783cc"/>
      <stop offset=".75" stop-color="#2a69af"/>
      <stop offset=".86" stop-color="#1a498b"/>
      <stop offset=".96" stop-color="#072461"/>
      <stop offset="1" stop-color="#001652"/>
    </radialGradient>
    <linearGradient id="_Áåçûìÿííûé_ãðàäèåíò_559" data-name="Áåçûìÿííûé ãðàäèåíò 559" x1="39.64" y1="75.78" x2="39.64" y2="3.5" gradientTransform="translate(-6.1 7.72) rotate(-14.34)" gradientUnits="userSpaceOnUse">
      <stop offset="0" stop-color="#e8ddff"/>
      <stop offset="1" stop-color="#aa8ad8"/>
    </linearGradient>
    <linearGradient id="_Áåçûìÿííûé_ãðàäèåíò_559-2" data-name="Áåçûìÿííûé ãðàäèåíò 559" x1="15.29" y1="43.18" x2="15.29" y2="33.56" gradientTransform="translate(-22.18 14.86) rotate(-35.79)" xlink:href="#_Áåçûìÿííûé_ãðàäèåíò_559"/>
    <linearGradient id="_Áåçûìÿííûé_ãðàäèåíò_559-3" data-name="Áåçûìÿííûé ãðàäèåíò 559" x1="13.98" y1="45.97" x2="13.98" y2="44.57" gradientTransform="translate(-22.18 14.86) rotate(-35.79)" xlink:href="#_Áåçûìÿííûé_ãðàäèåíò_559"/>
    <linearGradient id="_Áåçûìÿííûé_ãðàäèåíò_559-4" data-name="Áåçûìÿííûé ãðàäèåíò 559" x1="32.01" y1="58.52" x2="32.01" y2="26.95" gradientTransform="translate(-22.18 14.86) rotate(-35.79)" xlink:href="#_Áåçûìÿííûé_ãðàäèåíò_559"/>
    <linearGradient id="_Áåçûìÿííûé_ãðàäèåíò_559-5" data-name="Áåçûìÿííûé ãðàäèåíò 559" x1="53.69" y1="81.55" x2="53.69" y2="51.13" gradientTransform="translate(-22.18 14.86) rotate(-35.79)" xlink:href="#_Áåçûìÿííûé_ãðàäèåíò_559"/>
    <radialGradient id="_Áåçûìÿííûé_ãðàäèåíò_159" data-name="Áåçûìÿííûé ãðàäèåíò 159" cx="10.25" cy="30.66" fx="10.25" fy="30.66" r="23.69" gradientTransform="translate(-22.18 14.86) rotate(-35.79)" gradientUnits="userSpaceOnUse">
      <stop offset="0" stop-color="#a9faff"/>
      <stop offset="1" stop-color="#70b7f8"/>
    </radialGradient>
  </defs>
  <g class="cls-8">
    <g id="Layer_2" data-name="Layer 2">
      <g id="layer1">
        <g>
          <path class="cls-5" d="m66.94,15.35c.22.3.43.61.64.92,2.09,3.09,3.65,6.38,4.7,9.77,2.96,9.57,1.87,19.93-2.87,28.62-2.56,4.71-6.2,8.93-10.84,12.28-4.92,3.55-10.42,5.71-16.04,6.56-8.65,1.32-17.58-.48-25.07-5.12-.64-.39-1.27-.81-1.88-1.25-3.24-2.29-6.16-5.15-8.61-8.55C-4.25,43-1.6,21.64,12.54,9.22c.7-.62,1.42-1.21,2.19-1.78,0,0,0,0,.01,0,.2-.16.41-.31.61-.46,2.25-1.62,4.61-2.95,7.06-4,1.53-.66,3.09-1.21,4.67-1.64,7.86-2.18,16.19-1.67,23.66,1.32,6.29,2.52,11.96,6.79,16.21,12.69Z"/>
          <path class="cls-1" d="m50.73,2.66c-.1,0-.19-.01-.29-.02-.5,0-1.1.03-1.59.13-.44.09-.81.32-1.2.44-.67.19-1.41.27-2.13.3-.87.04-1.66.29-2.52.36-2.25.16-4.43-.95-6.51-1.67-.5-.18-.83-.27-1.3-.5-.32-.15-.63-.19-.98-.23-.75-.1-1.6-.16-2.3.22-.42.23-.59.68-.84,1.09-.34.56-.47.76.14,1,1.05.42,2.38.69,2.28,2.13-.06.92-.05,1.81-.23,2.71-.21,1-.15,2.24-.86,3.07-.53.61-1.49.58-2.24.78-.66.18-1.39.27-1.99.63-.47.28-.73.7-1.11,1.07-.59.57-1.41.98-2.18.57-.29-.15-.27-.28-.64-.28-.34,0-.78.21-1.08.34-.92.39-1.71,1.07-2.62,1.45-.61.25-1.32.38-1.95.55-.42.11-.84.4-1.24.43-.23.02-.53-.04-.78-.03-.74,0-1.19.13-1.79.58-1.19.89-2.53,2.42-3.22,3.78-.45.88-.16,1.28.56,1.79.61.43,1.64.8,1.95,1.52.26.6.15,1.32.32,1.94.17.61.33,1.19.9,1.53.97.57,2.2.66,3.21,1.11,1.15.51,2.49,1.8,2.02,3.13-.24.65-.17,1.3-.15,1.99.01.47.15,1.11-.39,1.33-.36.15-.9-.07-1.27.05-.42.14-.63.48-.78.87-.24.6-.65,1.3-.72,1.94-.13,1.18.99,2.64,1.97,3.17,1.18.64,2.32,1.35,3.71,1.11.88-.15,1.69-.73,2.6-.29.55.28.8.76,1.23,1.15.43.39.91.64,1.31,1.09.37.43.75.8,1.19,1.15.61.48,1.23,1.04,1.9,1.44.79.48,1.69.58,2.54.87.76.25,1.42.17,2.2.33.85.17,1.76.15,2.53.56.58.31,1.13.69,1.74.97,1.69.77,2.4-1.06,2.89-2.35.34-.9.66-1.71.76-2.66.08-.74.14-1.51.36-2.23.22-.7.44-1.46.76-2.11.13-.26.32-.5.35-.81.06-.48-.13-.95-.42-1.37-.61-.89-1.27-2.15-2.09-2.86-.89-.78-1.87.06-2.62.58-.43.29-1.01.6-1.5.36-.46-.23-.68-.69-1.21-.9-.56-.22-1.07-.09-1.48.38-.17.2-.25.41-.45.6-.19.18-.45.2-.5.5-.1.63.86.69,1.3.82.78.23.9.32,1.04,1.12.07.46.15,1.21-.42,1.35-.41.09-1.14-.43-1.52-.53-1.62-.44-3.26-.88-3.27-2.91,0-.63.3-.8.49-1.34.2-.55-.02-1.22.21-1.79.31-.75,1.3-1.2,1.94-1.66.75-.55,1.68-1.08,2.53-1.47.61-.28,1.06-.28,1.69-.34.63-.06.98-.6,1.53-.84,1.02-.43,1.86-.06,2.87.15.99.2,1.49.68,2.27,1.33,1.56,1.32,3.12,2.81,4.32,4.47,1.03,1.45,2,3.03,3.32,4.21.64.57,1.3,1.03,2.01,1.48.23.14.26.02.41.33.09.18.18.84.19,1.06,0,.56-.34,1.28-.44,1.85-.1.56-.37,1.03-.56,1.56-.27.76-.59,1.46-.88,2.21-.48,1.2.39,2.37.14,3.65-.36,1.82-1.49,2.93-2.5,4.42-.81,1.2-1.69,2.3-2.34,3.57-.41.8-.6,1.59-1.09,2.36-.62.97-1.45,1.76-2.18,2.63-.58.69-1.24,1.32-2.03,1.77-.52.29-.98.4-1.48.77-.89.65-1.79,1.31-2.7,1.95-.49.34-1.07.4-1.64.56-.58.16-1.18.27-1.76.43-1.53.41-3.39,1.42-4.98.91-.47-.15-.91-.41-1.38-.52-.4-.09-.78-.01-1.18-.04-.34-.02-.62-.06-.95-.03-.53.04-.89-.07-1.42-.18-.43-.08-.87-.08-1.31-.03-.22.02-.59.17-.8.12-.28-.06-.26-.22-.45-.41-.21-.22-.46-.33-.69-.53-.6-.54-1.51-1.04-2.42-.96-.49.05-.76.18-1.26.12-.93-.08-1.37-.21-2.15-.79,0,.03,0,.06.01.07,7.48,4.64,16.41,6.44,25.07,5.12.15-.24.29-.48.42-.72.4-.74.96-1.13,1.63-1.61.88-.63,1.66-1.32,2.41-2.11.67-.69,1.39-1.23,2.18-1.79.98-.69,1.76-1.59,2.75-2.28.94-.66,1.99-1,3.03-1.44,1.5-.64,2.61-1.99,3.69-3.18.49-.53.8-1.24,1.32-1.74.32-.31.68-.53.98-.87.72-.78,1.81-1.66,2.77-2.16.65-.34,1.22-.05,1.87-.08.69-.03,1.13-.72,1.69-1.03.65-.36,1.48-.2,2.13.17,4.74-8.7,5.82-19.05,2.87-28.62-.83.61-1.59,2.18-2.1,2.49-.31.19-.68.2-1,.43-.3.22-.46.48-.71.75-.37.4-.84.88-1.37.64-.52-.25-.67-1.32-1.38-.96-.35.18-.47.64-.88.83-.35.16-.62.28-.93.51-.53.39-.85.81-1.31,1.25-.23.23-.47.27-.76.39-.22.09-.6.4-.81.43-.79.11-.71-.84-.73-1.35,0-.26.02-.6-.02-.86-.05-.31-.19-.39-.31-.65-.32-.67-.22-1.42-.05-2.13.25-1.04.49-2.15.44-3.22-.02-.48.04-.8-.17-1.23-.15-.32-.3-.64-.44-.96-.18-.39-.28-.74-.39-1.15-.16-.55-.48-1.01-.66-1.55-.15-.46-.28-1.52-.09-1.99.1-.22.32-.34.4-.59.08-.24-.02-.44.12-.66.33-.52,1.47-.74,2-.89.8-.23,1.81-.27,2.63-.15.9.13,1.6.44,2.44.72.3.1.93.24,1.38.15-.2-.31-.42-.61-.64-.92-4.25-5.9-9.93-10.17-16.21-12.69Zm-5.44,25.05c.08.25-.25.66-.46.76-.42.22-1.04,0-1.5-.04-.49-.04-.94-.2-1.28-.57h.42c-.56-.2-1.28-.25-1.31-1.01-.02-.43.27-.64.65-.72.62-.13,1.32-.29,1.95-.11.43.12.66.48.91.83.16.23.54.58.63.86Zm-5.92-21.54c.06.45-.12.95-.35,1.31-.17.28-.56.7-.84.9-.64.47-1.61.39-2.34.35-.43-.02-1.47-.22-.42-.56-.27-.17-.53-.29-.69-.55-.11-.17-.19-.42-.27-.61-.19-.45-.19-.94-.34-1.4-.12-.35-.27-.78-.46-1.09-.18-.29-.43-.47-.32-.84.07-.23.2-.32.42-.33.23-.02.56.15.8.2.27.06.53.13.79.2.77.21,1.43.71,2.18.97.42.14.76.22,1.15.48.33.22.63.54.7.96Zm22.16,6.6c.07.75-.61,1.49-1.12,1.97-.75.71-1.92,1.18-2.88,1.55-.41.16-.73.23-1.15.21-.45-.01-.92.14-.38-.16-.5-.37-.9-.72-1.35-1.13-.54-.5-1.2-.89-1.79-1.34-.97-.75-2.15-1.64-2.61-2.84-.3-.78-.3-1.85.22-2.52.37-.46.94-.91,1.51-1.09.71-.23,1.48-.18,2.2-.13.71.05,1.47.28,2.05.72.41.32.76.72,1.19,1.01.22.15.43.27.64.44.26.21.58.27.88.38.46.17.84.26,1.15.66.29.37.54.76.82,1.14.26.36.57.67.62,1.13Z"/>
          <path class="cls-3" d="m16.05,38.88c.07.36.29,1.15.08,1.52-.23.42-.93.34-1.31.39-.32.05-.65.02-.95.12-.25.08-.47.24-.74.28-.19.03-.55.09-.74.05-.22-.05-.37-.21-.56-.33-.46-.31-.83-.79-1.25-1.17-.26-.24-.36-.49-.48-.82-.16-.43-.35-.85-.49-1.29-.2-.63-.45-1.29-.5-1.95-.05-.61.12-1.06.43-1.58.13-.22.32-.38.44-.6.15-.26.29-.55.5-.77.12-.12.26-.26.41-.34.21-.11.34-.06.55-.09.31-.04.43-.09.73,0,.23.07.45.17.63.32.38.3.84.53,1.19.85.48.43.78.84.95,1.48.15.56.37,1.08.61,1.6.2.43.48,1.05.5,1.55.01.36-.08.68-.03.78Z"/>
          <path class="cls-6" d="m15.05,42.95c-.05.24-.03.47.05.68.34-.04.65.42,1.03.26.03-.31.3-.84-.13-1.01-.06-.03-.19.03-.26.02-.1-.02-.19-.1-.28-.09-.21.03-.55.39-.72.51l.31-.37Z"/>
          <path class="cls-4" d="m23.01,40.85c.33.17.48.25.82.29.27.03.57.03.84.05.48.03,1.09-.02,1.56.11.46.13.57.45.86.76.17.19.39.36.57.54.11.1.22.16.32.28.11.14.18.29.32.4.27.23.63.3.91.54.21.18.39.41.67.5.22.07.42,0,.63,0,.28,0,.53.09.79.17.88.29,1.48,1.01,2.31,1.36.76.32,1.59-.52,2.22-.81.1-.05.24-.03.33-.11.1-.08.14-.25.21-.35.13-.21.28-.33.5-.43.13-.06.12.07.26-.09.08-.09.08-.35.07-.47-.02-.37-.23-.58-.51-.8-.29-.23-.57-.46-.85-.69-.27-.21-.57-.35-.81-.59-.24-.24-.37-.54-.61-.78-.58-.57-1.17-.62-1.96-.73-.72-.1-1.63.03-2.08-.67-.18-.28-.07-.38-.07-.66,0-.31-.14-.66-.05-.97.03-.12.24-.4.32-.52.15-.23.36-.45.48-.7.14-.29.02-.46.04-.74.02-.18.06-.11.14-.26.09-.19.1-.24.12-.47.04-.35.06-.65-.01-1-.06-.3-.11-.53-.06-.84.05-.35.14-.74.24-1.08.11-.35.31-.72.57-.97.13-.13.3-.21.45-.32.43-.32.67-.85.93-1.3.4-.67.78-1.99,1.79-1.76.3.07.5.34.82.35.69.03,1.04-.64,1.36-1.15.53-.86.76-1.83.97-2.8.13-.62.23-1.16-.13-1.72-.71-1.09-2.08-1.18-2.95-2.09-.84-.87-1.15-2.22-1.69-3.28-.27-.53-.78-1.15-1.36-1.35-.19-.07-.5-.12-.71-.12-.51,0-.65.3-1.05.5-.27.14-.44.09-.72.07-.73-.06-1.43.76-1.98,1.14-.8.56-1.74,1.09-2.72,1.2-1.15.13-2.3.22-3.46.21-.84,0-1.75-.02-2.58.1-.59.09-1.15.4-1.65.72-.7.46-1.18,1.07-1.24,1.93-.06.81.37.93.96,1.36.19.14.61.4.64.67.04.41-.56.72-.84.92-.25.17-.84.45-.77.84.06.29.5.71.67.95.17.23.29.54.58.6.22.05.41-.07.63-.1.37-.05.62.15.95.27.25.09.51.06.77.09.32.04.67.19.99.14.55-.08.86-.47,1.47-.38.2.03.42.12.63.1.17-.01.33-.1.49-.15.39-.11.99-.25,1.31.11.32.36-.01.99-.26,1.29-.22.27-.63.59-.49.97.12.32.46.45.47.83.03,1.2-1.52,1.34-2.26,1.9-1.11.85-1.03,2.24-1.01,3.48,0,.12-.05.24-.05.35,0,.21.11.26.15.44.06.25-.07.5-.19.71-.16.29-.25.49-.51.7-.29.22-.64.39-.9.64-.52.49-.25,1.29.27,1.7.34.26.92.23,1.3.41.31.15.59.34.92.43.18.05.41.04.6.07.28.05.51.23.31.03Z"/>
          <path class="cls-7" d="m46.7,28.87c.18.35.27.6.51.87.2.23.42.42.61.66.49.64.85,1.4,1.33,2.07.28.39.62.63.96.96.44.43.6,1.01.96,1.5.49.67,1.01,1.35,1.84,1.6.32.1.59.1.89-.09.27-.17.39-.47.67-.64.23-.15.48-.1.75-.15.34-.07.68-.15,1.02-.24.32-.08.52-.06.84-.02.28.04.57-.05.81.14.25.21.08.56.06.85-.03.59-.08,1.11-.37,1.64-.18.33-.31.42-.66.53-.32.1-.63.19-.77.55-.18.46-.27,1.02-.22,1.51,0,.07.07.3.1.34.12.21.04.07.22.15.21.09.38.11.53.32.21.29.36.82.4,1.17.03.25.03.52-.04.76-.08.29-.07.56-.18.84-.21.55-.22,1.1-.5,1.64-.32.63-.54,1.31-.75,1.99-.44,1.43-1.1,2.7-.92,4.24.04.38.32,1.04.69,1.21.15.07.4.03.57.07.32.08.51.26.78.43.29.19.72.49,1.09.51.36.02.85-.2,1.15-.4.18-.12.32-.24.51-.34.14-.08.27-.08.42-.18.52-.33.93-.65,1.59-.7.23-.01.43.03.65.09.25.07.52.27.78.3.52.07.97-.68,1.2-1.03.33-.5.63-1.17,1.21-1.44.35-.16.74-.09,1.11-.2.51-.16.91-.25,1.44-.28.22-.01.34,0,.54-.13.6-.39.93-1.13,1.22-1.76.35-.75.58-1.54.93-2.28.39-.82.57-1.49.72-2.38.14-.8.46-1.52.7-2.29.18-.58.33-1.18.5-1.76.17-.6.19-1.23.27-1.85.06-.49.18-.94.15-1.44-.03-.55-.1-1.12-.07-1.66.04-.59.03-1.1-.05-1.69-.07-.54-.28-1.54-1.05-1.44-.55.07-1.07.63-1.5.93-.7.49-1.55.42-2.34.23-.64-.15-1.24-.41-1.9-.51-.32-.05-.76-.21-1.08-.1-.24.08-.52.32-.68.5-.41.44-.87.81-1.43,1.06-.49.22-1.18.52-1.73.44-.35-.05-.7-.22-1.04-.32-.5-.14-.85-.82-.98-1.31-.27-1.02-.82-1.94-1.05-2.97-.14-.65.62-.98.87-1.53.2-.43.14-.84.2-1.28.05-.39.25-.79.36-1.16.39-1.24-.18-2.36-1.52-2.68-.77-.18-1.52.07-1.99.68-.21.27-.44.54-.61.83-.23.39-.37.8-.7,1.13-1.27,1.26-3.04,1.34-4.7,1.51-.77.08-1.59.27-2.28.62-.38.2-.5.23-.68.64-.13.29-.29.45-.46.72-.17.28-.18.62.09-.03Z"/>
          <path class="cls-2" d="m22.41,2.98s-.07.08-.12.12c-.51.61-1.14,1.08-1.79,1.55-.15.11-.32.29-.48.36-.13.05-.22.03-.35.1-.29.15-.58.3-.87.41-.51.19-1.01.65-1.47.99-.56.41-1.34.56-1.85,1.03-.56.5-.96,1.16-1.59,1.59l-.43.31c-.37.27-.37.6-.65,1.06.1.32.35.83.26,1.16-.03.12-.1.25-.16.35-.18.28-.32.59-.54.85-.41.49-.82,1.01-1.33,1.4-.42.33-.88.54-1.34.81-.9.53-1.79.99-2.33,1.94-.29.52-.57,1.06-.88,1.58-.18.3-.4.62-.52.94-.09.25-.12.52-.19.77-.09.3-.35.51-.53.77-.2.32-.24.64-.25,1.01-.01.51.31.87.36,1.34.02.28-.11.51-.22.75-.5,1.12-.12,2.24-.27,3.42-.1.86-.69,1.57-.86,2.43-.18.86-.21,1.74-.28,2.62-.04.59-.21.88-.5,1.35-.27.47-.54,1.09-.59,1.63-.05.59-.09,1.15-.2,1.73-.09.45-.33.86-.4,1.32-.06.42.05.84.08,1.26.05.93.34,1.79.43,2.71.07.76-.15,1.65.28,2.32.15.24.28.34.49.52.29.25.46.63.7.93.14.17.31.27.48.4.22.17.39.41.63.55.4.22.89.22,1.31.37.49.19.76.59.91,1.06.16.49.3,1.01.42,1.52.2.77.04,1.69.36,2.43.12.28.37.44.58.64.25.23.52.52.74.78.25.28.4.59.53.93.08.24.08.46.09.73,0,.12-.05.24-.05.35,0,.21.11.39.15.6.04.21.16.68.05.88-.22.42-.85-.18-.92.19-.06.26.33.55.44.76.15.27.27.65.33.96.12.63.02.88.52,1.3.41.34.82.58,1.31.79.59.25.81.76,1.27,1.15.24.21.38.51.58.76.19.25.45.36.67.57.16.15.4.41.45.63.04.16-.07.34-.09.49-.03.31.11.51.22.79.15.42.34.73.6,1.1-3.24-2.29-6.16-5.15-8.61-8.55C-4.25,43-1.6,21.64,12.54,9.22c.7-.62,1.42-1.21,2.19-1.78,0,0,0,0,.01,0,.2-.16.41-.31.61-.46,2.25-1.62,4.61-2.95,7.06-4Z"/>
        </g>
      </g>
    </g>
  </g>
</svg>