<?xml version="1.0" encoding="UTF-8"?>
<svg xmlns="http://www.w3.org/2000/svg" xmlns:xlink="http://www.w3.org/1999/xlink" viewBox="0 0 179 179.01">
  <defs>
    <style>
      .cls-1 {
        isolation: isolate;
      }

      .cls-2 {
        fill: url(#_Áåçûìÿííûé_ãðàäèåíò_559);
        mix-blend-mode: multiply;
        opacity: .2;
      }

      .cls-2, .cls-3, .cls-4, .cls-5 {
        fill-rule: evenodd;
      }

      .cls-3 {
        fill: #b5ffff;
      }

      .cls-4 {
        fill: url(#_Áåçûìÿííûé_ãðàäèåíò_453);
      }

      .cls-5 {
        fill: #daffff;
      }
    </style>
    <radialGradient id="_Áåçûìÿííûé_ãðàäèåíò_453" data-name="Áåçûìÿííûé ãðàäèåíò 453" cx="65.9" cy="57.88" fx="65.9" fy="57.88" r="185.29" gradientUnits="userSpaceOnUse">
      <stop offset="0" stop-color="#5eceff"/>
      <stop offset=".12" stop-color="#7ddbff"/>
      <stop offset=".26" stop-color="#9ae8ff"/>
      <stop offset=".41" stop-color="#b0f2ff"/>
      <stop offset=".57" stop-color="#c0f9ff"/>
      <stop offset=".75" stop-color="#cafdff"/>
      <stop offset=".99" stop-color="#cdffff"/>
    </radialGradient>
    <linearGradient id="_Áåçûìÿííûé_ãðàäèåíò_559" data-name="Áåçûìÿííûé ãðàäèåíò 559" x1="89.76" y1="179" x2="89.76" y2="0" gradientUnits="userSpaceOnUse">
      <stop offset="0" stop-color="#e8ddff"/>
      <stop offset="1" stop-color="#aa8ad8"/>
    </linearGradient>
  </defs>
  <g class="cls-1">
    <g id="Layer_2" data-name="Layer 2">
      <g id="layer1">
        <g>
          <g>
            <path class="cls-4" d="m179,89.51c0,21.75-7.76,41.69-20.67,57.2-16.41,19.74-41.14,32.3-68.83,32.3-42.01,0-77.25-28.95-86.9-67.97-1.7-6.9-2.6-14.11-2.6-21.52,0-3.29.18-6.52.52-9.72.22-2.01.5-3.98.84-5.95C8.77,31.89,45.41,0,89.5,0c12.28,0,23.97,2.48,34.62,6.95h.01c16.54,6.95,30.54,18.72,40.27,33.55,9.23,14.08,14.6,30.92,14.6,49.01Z"/>
            <path class="cls-2" d="m179,89.51c0,49.43-40.07,89.5-89.5,89.5-42.01,0-77.26-28.94-86.9-67.97.24.33.48.65.72.98.49.68.78,1.37,1.02,2.16.14.45.12.97.25,1.39.23.73.83,1.11.55.24.39.82.48,1.58.85,2.38.53,1.18.95,2.25,1.32,3.5.29,1,.48,2.04.79,3.03.28.9.75,1.74,1.09,2.63,1.1,2.78,2.66,5.09,4.32,7.54.43.63.68,1.37,1.12,1.98.48.65,1.1,1.24,1.62,1.88.54.68,1.38,1.17,2.11,1.62.77.47,1.42,1.06,2.16,1.57,1.25.87,2.82,1.13,4.3,1.12,1.69,0,3.35-.51,5.01-.08,2.85.75,3.22,4.46,4.69,6.56.63.9,1.67,1.4,2.7,1.68,1.25.33,2.25.77,3.25,1.55.75.59,1.77,1.04,2.72,1.08,1.04.04.81-.53.8-1.41-.01-1.3-.92-1.96-1.63-2.98-.4-.57-.53-1.15-.8-1.78-.18-.41-.42-.63-.22-1.1.67.06,1.35.62,1.86,1.04,1.1.91,2.49,1.45,3.79,2.04.62.27,1.12.54,1.66.94.28.21.68.64,1,.78,1,.41,2.2-1.2,2.41-2.01.23-.93-.14-2.3-.8-2.95-1.2-1.2-2.19-2.5-3.19-3.88-1.03-1.42-2.35-2.8-3.08-4.4-.73-1.61-1.41-3.52-1.24-5.32.1-1.12.58-2.3.93-3.36.17-.53.28-1.36.59-1.82.46-.68,1.51-.58,2.21-.45,1.27.24,2.93.24,4.06.88,1.12.64,1.84,2.11,3.22,2.29,2.14.29,4.03-1.54,5.37-2.9,1.21-1.23,2.68-3.3,4.44-3.79,1.05-.29,2.02.37,3,.63.45.12.91.33,1.37.39.8.11,1.42-.3,2.09-.67,1.54-.85,2.93-.78,4.61-.34.78.21,1.3.73,1.94,1.17,1.03.72,2.06,1.42,3.12,2.11.95.61,1.83,1.17,2.24,2.26.19.52.2.72.06,1.28-.09.36-.28.85-.11,1.22.28.58,1.18.76,1.68,1.08.72.46,1.41,1.02,2.04,1.59,1.65,1.49,2.24,3.24,2.43,5.39.11,1.21-.09,2.55-.97,3.47-.99,1.05-2.7,1.07-3.56,2.2-.69.9-.95,2.14-1.09,3.25-.09.69.01,1.28-.26,1.95-.34.81-.86,1.61-1.28,2.38-.33.63-.75,1.15-.99,1.82-.14.38-.23.77-.38,1.15-.37.9-1.11,1.68-1.95,2.15-1.16.65-2.31,1.38-3.66,1.35-.78,0-1.82.19-2.57.01-.24-.06-.41-.22-.65-.29-.31-.09-.55-.12-.84-.23-.82-.31-1.07-.61-1.54-1.39-.38-.67-.8-1.04-1.43-1.48-.48-.33-1.04-.51-1.57-.78-.34-.18-.92-.25-1.2-.51-.56-.51.13-1.03.43-1.54.65-1.12,1.52-2.26,2.5-3.1.41-.36.89-.61,1.41-.77.76-.23,1.11-.06,1.77.28.73.39.91.8,1.3,1.49-.36.3-.83.71-1.24.88-.36.14-.96.06-1.04.59,1.15,1.23,2.09,1.96,3.67.81.83-.61,2.78-1.6,2.75-2.75-.01-.63-1.21-1.42-1.66-1.76-.45-.34-.97-.58-1.41-.94-.47-.38-.7-.92-1.12-1.33-.43-.43-.99-.82-1.45-1.25-.44-.41-.9-.51-1.42-.78-.55-.29-.93-.65-1.54-.84-.69-.2-1.72-.58-2.45-.56-1.6.03-3.15,1.62-4.06,2.79-.8,1.01-2.29,2.92-1.83,4.33.19.56.75.78,1,1.27.11.23.23.7.29.94.17.8-.04,1.56.22,2.36.78,2.48,1.19,5.38,3.69,6.68.41.21.72.41,1.17.55.45.14.97.14,1.41.31.96.36,1.69.84,2.74,1,1.15.18,2.28.3,3.45.3,1.55,0,3.17.16,4.62-.53.75-.36,1.78-1.02,2.36-1.62.72-.75.84-1.79,1.06-2.76.21-.88.17-2.24.88-2.93.61-.59,1.54-.7,2.17-1.32.9-.9,1.71-2.14,2.28-3.27.8-1.56,1.87-2.91,2.7-4.44.47-.85,1.17-1.96,1.89-2.64.68-.65,1.64-.89,2.56-.99.8-.09,1.67-.32,2.43-.6.77-.28,1.63-.6,2.38-.95.63-.3,1.12-.93,1.65-1.42,1.37-1.24,2.88-1.61,4.61-1.96.71-.14,1.19-.28,1.89-.06.56.19,1.1.47,1.69.6.79.18,1.82.52,2.63.28,2.96-.88.93-3.52.42-5.47-1.01-3.96-.95-7.94-.95-11.99,0-1.25-.21-2.63.26-3.8.22-.56.28-1.2.53-1.74.17-.38.61-.65.76-1.01.31-.68.13-.98.92-1.37.81-.4,1.49-.46,2.38-.46,2.36,0,5-.36,7.22.59.94.41,1.69,1.1,2.49,1.7.85.63,1.51,1.1,1.62,2.23.14,1.34.75,2.67,2.19,3.05,1.2.32,2.51.79,3.75.79.82,0,1.64-.41,2.43-.28.23.04.52.24.69.26.39.03.8-.25,1.19-.39.93-.36,1.64-.42,2.63-.41,1.74.02,2.25-1.12,3.49-2.16,1.4-1.19,2.59-2.12,4.46-2.15,2.26-.03,3.92-1.86,4.94-3.7,1.59-2.89,3.1-6.62,1.82-9.87-.48-1.2-1.4-2.13-2.11-3.2-.75-1.14-1.09-2.46-1.46-3.74-.33-1.11-1.54-2.34-2.7-2.65-.98-.26-2.05-.09-2.82-.85-.71-.71-1.55-1.68-2.06-2.55-.75-1.28-1.05-3.3-1.06-4.76,0-.49-.13-.56-.24-.94-.11-.36.06-.76-.01-1.13-.19-1.06-.52-2.13-.75-3.22-.25-1.2-.96-2.56-.91-3.8.04-.98.63-2.16,1.38-2.77.88-.7,1.52-1.58,2.16-2.52.34-.5.67-.95.88-1.51.22-.58.12-1.03.21-1.62.14-.88.88-1.43,1.73-1.6.53-.11,1.08.06,1.62-.02.78-.14,1.52-.61,2.02-1.2,1.14-1.35.89-3.53.83-5.2-.06-1.82-1.27-2.66-2.19-4.04-.86-1.31-1.23-3.31-.2-4.67.41-.53,1.01-.89,1.23-1.6.23-.74-.23-1.8-.53-2.48-.59-1.27-1.41-2.37-2.38-3.36-.45-.45-.51-.89-.78-1.45-.34-.7-.79-1.29-1.1-2.01-.27-.61-.52-1.03-.97-1.49-.26-.26-.37-.54-.61-.81-.62-.72-1.49-1.1-2.06-1.91-.46-.65-1-1.42-1.37-2.14-.37-.74-.33-1.51-.37-2.31-.05-1.14-.62-1.84-1.17-2.76-.25-.41-.46-.69-.8-1.07-.56-.61-.9-1.27-1.33-1.96-.43-.68-1.2-1-1.85-1.35-.31-.17-.39-.31-.78-.23-.47.09-1.2.75-1.53,1.06-.83.77-1.82,1.1-2.92,1.47-1.05.35-2.11.65-3.17.95-1.39.4-2.81.45-4.21.79-1.89.46-3.62.85-4.52,2.69-.65,1.32-.38,2.9-.39,4.34,0,.52-.06,1.05.06,1.55.16.74.56,1.42.7,2.16.41,2.01-.25,4.11-.9,5.99-.65,1.89-1.89,3.27-3.35,4.61-1.91,1.76-4.8,1.73-7.06,2.74-1.53.69-3.84,1.63-4.26,3.45-.31,1.37.47,2.27.72,3.51.16.81-.02,1.67.19,2.43.27.97-.04,1.49-.88,2.17-.43.35-.93.7-1.1,1.27-.1.34.04.68-.03,1.01-.12.6-.69,1.02-1.24,1.18-.92.26-1.9.26-2.76.82-.78.51-1.1,1.3-2.06,1.5-.75.17-1.31.02-2.09-.07-1.3-.16-2.6-.13-3.89-.4-2.27-.47-4.38-.87-6.73-.76-1.85.09-2.9.59-4.65-.44-1.11-.66-2.21-1.4-3.36-1.99-1.32-.66-2.75-1.13-4.13-1.67-2.09-.83-4.26-1.27-6.41-1.86-2.19-.61-3.72-2.56-5.25-4.07-1.51-1.47-2.8-3.29-3.32-5.37-.34-1.38-.19-2.36,0-3.72.41-3.02-1.13-5.78-.65-8.78.5-3.12.72-6.3,2.01-9.23.57-1.28,1.52-2.28,2.16-3.5.67-1.3,1.94-1.87,3.21-2.45.9-.41,2.02-.92,3.03-.89,1.27.04.91.8,1.33,1.66.31.61.83,1.01,1.35,1.47,1.07.95,2.58,0,3.63-.66,1.22-.76,2.89-2.16,4.44-1.79,1.19.29,2.26.8,3.37.02.74-.51,1.28-1.47.73-2.37-.92-1.51-3.12-1.56-4.65-1.54-1.82.01-3.62-.07-5.43.2-1.12.17-2.21.43-3.32.21-1.22-.24-2.19-.89-3.3-1.37-1.86-.79-3.42-.07-5.18.61-2.14.82-4.21,2.28-5.15,4.4-.79,1.81-.36,3.76-.55,5.64-.08.85-.21,1.77-.48,2.58-.42,1.29-1.32,2.31-2.13,3.37-1.45,1.89-2.23,3.87-1.81,6.21.18,1.01.13,1.54-.33,2.45-.36.73-1.1,1.6-1.3,2.38-.21.8.36.93.95,1.41.7.56,1.4,1.54,1.58,2.43.47,2.21-.62,4.31-2.36,5.61-1.15.86-2.72,1.17-3.54,2.41-.43.67-.82,1.37-1.23,2.05-.66,1.09-1.54,1.7-2.67,2.24-1.25.58-2.66.68-3.66,1.67-.58.57-.78,1.12-1.12,1.86-.53,1.13-1.17,2.19-1.77,3.28-.58,1.07-1.16,1.79-2.24,2.4-1.26.71-2.52,1.35-3.74,2.14-1.31.85-2.16,2.09-3.25,3.17-1.27,1.25-2.7,1.67-4.38,2.05-2.47.55-4.98,1.23-7.49,1.59-2.2.31-4.12.19-6.21-.55-1.68-.58-3.31-1.23-4.88-2.05C5.36,34.93,43.35,0,89.5,0,138.93,0,179,40.07,179,89.51Z"/>
          </g>
          <path class="cls-3" d="m124.12,6.95c-.24-.04-4.27-.73-7.94-1.2-3.8-.49-3.11-2.08-6.41-3.02s-9.33-2.07-10.32-1.91c-.98.17-2.15,1.07-4.32.99s-6.12-.31-8.98-.1c-2.87.21-7.64-1.04-9.34.36-1.71,1.39-8.09,3.17-12.87,4.53-4.78,1.34-5.87,2-9.43,4.03-3.55,2.03-5.12,4.68-9.26,7.48s-6.11,1.92-8.87,2.53c-2.76.6-1.97.78-6.14,3.92-4.16,3.14-4.31,6.13-6.45,8.86-2.13,2.74-7.2,6.74-7.2,6.74l-3.29,6.3-2.73,4.69s1.96,2.98-2.27,7.71c-4.22,4.73-6.9,15.01-6.9,15.01l-.06-.03C8.77,31.89,45.41,0,89.5,0c12.28,0,23.97,2.48,34.62,6.95Z"/>
          <path class="cls-5" d="m103.03,177.99s6.8-4.93,7.44-9.2c.64-4.27-3.25-4.76-3.47-7.27-.23-2.52,5-9.54,5.74-14.01.74-4.47.04-8.5-1.78-11.31-1.82-2.82-11.92-7.32-13.47-12.85-1.56-5.54-10.69-12.27-10.56-17.67.13-5.4,4.58-9.8,5.41-17.66.83-7.86-.68-10.22-.68-10.22,0,0,2.31,3.77,1.91,10.85-.39,7.09-5.63,11.98-6.02,17.03-.39,5.04,11.16,15.21,11.4,16.93.24,1.71.03,2.3,2.06,4.42,2.03,2.12,9.59,6.67,11.52,9.77s4.2.57,4.79-3.93c.59-4.5-.13-10.51,2.99-13.47,3.12-2.96,5.14-3.16,5.95-7.49.81-4.33.89-7.87-.97-10.78s-5.43-5.05-4.98-8.86c.46-3.81-2.3-16.63-7.23-23.03-4.93-6.4-5.59-10.64-5.59-10.64,0,0,2.24,5.9,7.07,10.64,4.83,4.73,5.81,21.98,6.66,24.98.86,3.01,4.23,1.24,5.58,9.32s-.15,11.56-1.52,13.12-4.85,2.5-6,4.84c-1.15,2.33-.69,11.63-.99,14.53s-2.49,3.31-3.56,5.66c-1.07,2.36-.68,5.34-3.78,11.93-3.1,6.59-2.81,8.53,0,10.96,2.81,2.43,10.36,2.75,10.97,4.51s-2.36,3.32-2.17,3.98c.19.65,3.79-.73,3.79-.73,0,0-11.16,4.73-20.51,5.68Z"/>
          <path class="cls-5" d="m27.58,154.13s11.81,3.9,15.6-.28c3.79-4.19,2.4-8.81,3.37-15.38.96-6.56,1.28-8.91,6.44-11.01,5.15-2.1,9.99-1.32,11.78-4.87,1.79-3.54,7.38-9.19,7.38-9.19,0,0-5.93,5.15-6.48,9.93-.55,4.78-10.88.71-15.95,7.2-3.54,4.54-.43,15.19-3.16,21.76-2.73,6.57-14.22,5.74-14.22,5.74,0,0-2.68-1.57-4.74-3.91Z"/>
          <path class="cls-5" d="m179,89.51c0,21.75-7.76,41.69-20.67,57.2-1.28-1.58-2.58-4.25-2.75-8.65-.32-9.03-.27-13.4-3.55-19.5-3.29-6.09-7.07-3.01-7.94-9.78-.83-6.55-3.84-13.66-4.03-14.1.26.37,3.67,5.42,4.15,7.71.49,2.39.11,6.76,1.28,9,1.15,2.24,5.42,3.96,7.1,5.23,1.67,1.27,3.25,8.69,3.25,12.32s2.62,4.14,3.63,4.04,6.03-5.01,6.52-6.95c.5-1.92,5.32-13.4,1.32-18.71-3.98-5.31-8.19-4.04-11.2-8.42-3.02-4.37-4.85-4.08-12.56-8.83.61.26,5.65,2.42,9.53,4.45,4.14,2.17,3.54,3.96,5.72,6.01,2.17,2.06,5.82,2.76,7.89,4.14,2.06,1.38,3.28,7.6,4.6,10.06,1.31,2.46,5.94-1.32,4.41-10.77-1.52-9.45-5.04-9.27-5.64-13.2-.61-3.92,4.53-1.62,6.29-5.64,1.76-4.01-.63-10.74-1.8-13.88-1.17-3.13-4.46-4.55-8.14-7.39-3.67-2.85-2.88-4.38-7.52-6.96-3.6-2.01-7.88-2.5-9.6-2.62,2.02.09,7.41.43,9.88,1.22,3.07.99,4.9,5.82,7.24,7.58,2.33,1.78,6.64,2.37,7.32.78.7-1.6-.32-5.73-3.82-10.63-2.66-3.72-4.7-9.97-5.52-12.74,9.23,14.08,14.6,30.92,14.6,49.01Z"/>
          <path class="cls-5" d="m.02,91.1s4.38,2.35,6.88,2.6c2.5.25,6.2-1.58,10.56-1.95,4.36-.37,9.17,1.33,13.07.97,0,0-6.61.29-9.24,0-2.63-.29-1.55-.34-4.66-.32-3.12.02-6.18,1.81-9.13,2.26-2.96.46-3-.73-5.12.32-2.12,1.06-2.01,2.47-2.01,2.47,0,0-.32-5.47-.33-6.37Z"/>
          <path class="cls-5" d="m4.93,60.13s9.45,7.53,23.35,9.93c4.98.86,10.81-.86,13.57,4.43,1.92,3.68,9.01,4.93,9.01,4.93,0,0-4.21.47-7.66-1.92-3.45-2.39-1.41-4.36-5.95-5.94s-6.84-.13-9.96-.62-10.71-5.36-12.9-3.29c-2.39,2.26.58,5.31,4.42,8.02,3.84,2.7,8.13.62,10.79,1.31,2.66.69,3.35,1.06,3.35,1.06,0,0-2.42-.32-5.99-.54-3.57-.22-4.1,1.3-6.84,0-2.74-1.3-6.09-4.85-7.38-7.46-1.28-2.61-.81-4.4-2.99-6.18-2.18-1.77-6.03,0-6.03,0l1.21-3.74Z"/>
          <path class="cls-5" d="m107.48,2.15s4.39,5.88,4.39,8.12c0,5.43-3.33,10.76-4.74,14.02-1.77,4.1-1.74,8.62-1.74,8.62v5.09s.1-5.45.99-8.11,2.66-2.87,3.15-4.89c.49-2.01-.29-4.47.94-7.53s2.32-3.13,2.26-5.22-.26-5.48,1.62-6.44,4-1.06,4-1.06c0,0-5.92-2.15-10.87-2.6Z"/>
          <path class="cls-5" d="m54.08,7.21s1.65.84,2.81,5.51c.36,1.46.04,3.23,2.5,5.83s3.71,3.84,4.3,5.52c.59,1.68,1.48,5.25,1.48,5.25,0,0-1.87-5.55-3.15-7.13-1.28-1.58-1.58-1.06-2.96-2.35s-1.04-2.41-2.46-5.76c-1.43-3.36-6.52-4.95-6.52-4.95l4-1.92Z"/>
        </g>
      </g>
    </g>
  </g>
</svg>